<?xml version="1.0" encoding="utf-8"?>
<!-- Generator: Adobe Illustrator 16.0.0, SVG Export Plug-In . SVG Version: 6.00 Build 0)  -->
<!DOCTYPE svg PUBLIC "-//W3C//DTD SVG 1.1//EN" "http://www.w3.org/Graphics/SVG/1.1/DTD/svg11.dtd">
<svg version="1.1" id="Layer_1" xmlns="http://www.w3.org/2000/svg" xmlns:xlink="http://www.w3.org/1999/xlink" x="0px" y="0px"
	 width="841.89px" height="595.28px" viewBox="0 0 841.89 595.28" enable-background="new 0 0 841.89 595.28" xml:space="preserve">
<g>
	<polygon stroke="#FFF200" stroke-miterlimit="10" points="723.985,211.703 738.429,232.972 750.097,247.885 757.336,258.21 
		765.543,269.831 775.307,281.536 778.667,286.681 789.885,300.33 789.546,306.516 784.619,310.871 780.468,310.643 
		770.338,296.149 766.459,290.973 755.79,276.736 743.664,260.699 732.521,245.674 719.471,227.475 714.581,221.732 
		708.191,233.787 698.734,216.515 679.5,216.073 691.454,197.501 687.354,177.423 705.279,182.754 721.012,171.213 721.339,193.566 
		735.086,208.593 	"/>
	<text transform="matrix(1 0 0 1 244.2803 193.5586)" font-family="'ImprintMT-Shadow'" font-size="207.0979">itho</text>
	<text transform="matrix(1 0 0 1 30.4961 271.2983)" font-family="'ImprintMT-Shadow'" font-size="310.6469">K</text>
	<text transform="matrix(1 0 0 1 347.3633 423.5117)" font-family="'ImprintMT-Shadow'" font-size="207.0979">iracle</text>
	<text transform="matrix(1 0 0 1 76.2861 423.5127)" font-family="'ImprintMT-Shadow'" font-size="310.6469">M</text>
	<polygon fill="#FFF200" stroke="#FFF200" stroke-miterlimit="10" points="642.665,130.89 633.41,119.844 633.41,137.517 
		621.762,145.25 632.213,150.772 642.665,165.131 647.005,151.877 660.599,151.877 654.772,142.488 660.599,125.367 	"/>
	<polygon fill="#FFF200" stroke="#FFF200" stroke-miterlimit="10" points="622.73,204.604 613.476,193.559 613.476,211.231 
		601.826,218.964 612.279,224.486 622.73,238.846 627.07,225.591 640.663,225.591 634.837,216.203 640.663,199.083 	"/>
	<polygon fill="#FFF200" stroke="#FFF200" stroke-miterlimit="10" points="709.333,122.543 700.078,111.497 700.078,129.169 
		688.429,136.902 698.881,142.425 709.333,156.784 713.673,143.529 727.267,143.529 721.44,134.142 727.267,117.021 	"/>
	<polygon fill="#FFF200" stroke="#FFF200" stroke-miterlimit="10" points="675.34,232.397 668.583,224.162 668.583,237.336 
		660.078,243.101 667.71,247.217 675.34,257.921 678.511,248.04 688.432,248.04 684.179,241.043 688.432,228.28 	"/>
	<polygon fill="#FFF200" stroke="#FFF200" stroke-miterlimit="10" points="749.952,170.782 743.198,162.548 743.198,175.722 
		734.691,181.485 742.325,185.602 749.952,196.307 753.123,186.425 763.047,186.425 758.793,179.429 763.047,166.666 	"/>
</g>
</svg>
